<?xml version="1.0" encoding="utf-8" ?><svg xmlns="http://www.w3.org/2000/svg" xmlns:xlink="http://www.w3.org/1999/xlink" width="1280" height="832" viewBox="0 0 1280 832"><path d="M943.744 149.548C952.467 148.999 967.137 149.518 976.242 149.531L1037.25 149.415C1016.7 168.799 998.372 187.876 978.589 207.755L931.704 254.242C899.894 286.116 866.283 318.485 835.557 351.229C841.682 357.848 851.294 366.615 857.873 372.968C872.096 386.544 886.235 400.21 900.287 413.964C933.393 446.057 965.695 478.775 998.4 511.177C968.158 509.872 934.306 511.09 903.625 510.724C898.624 506.555 889.343 496.441 884.526 491.371L853.454 458.702L793.432 392.181C786.211 398.081 779.207 406.447 772.392 413.094C753.156 431.851 734.502 451.068 715.449 470.032L669.355 516.108C668.78 486.834 668.49 457.555 668.483 428.276C690.162 405.475 714.437 382.238 736.638 359.609C779.832 314.797 823.493 270.438 867.614 226.539C884.747 209.364 901.79 192.101 918.744 174.749C926.067 167.287 936.319 155.924 943.744 149.548Z"/><path fill="#1A6BFF" d="M290.533 261.791C296.38 266.388 302.141 272.756 307.716 277.879C319.507 288.713 331.005 299.614 342.464 310.8C372.401 339.547 401.975 368.67 431.178 398.162L455.604 422.665C460.62 427.739 467.038 434.672 472.46 439.054C492.285 420.015 512.698 397.41 532.529 377.818C547.108 363.415 566.869 344.088 580.207 328.95L580.002 419.508C557.764 441.867 536.412 464.959 514.292 487.371C509.281 492.448 494.549 508.098 489.91 511.399L450.884 512.105C447.002 509.086 441.95 502.637 438.661 498.857C431.447 490.566 424.458 481.542 416.655 473.802C374.927 432.793 332.959 392.028 290.753 351.51C290.198 322.006 290.844 291.509 290.533 261.791Z"/><path d="M291.193 148.915C299.457 156.197 310.012 167.803 318.674 176.023C353.877 209.46 388.564 243.436 422.722 277.94C433.48 288.789 444.31 299.567 455.211 310.272C460.354 315.356 466.402 321.972 471.873 326.414C476.361 321.806 480.892 317.24 485.465 312.716C512.081 312.592 548.907 311.52 575.051 313.271C567.817 319.475 555.698 332.518 548.743 339.584L499.12 390.53C490.251 399.665 480.562 410.132 471.355 418.745C462.817 411.002 455.194 401.733 446.913 393.684C432.486 379.661 418.906 364.538 404.546 350.485L322.968 271.597C312.67 261.503 300.91 250.468 291.129 240.091C290.678 209.701 290.699 179.305 291.193 148.915Z"/><path fill="#1A6BFF" d="M831.766 148.663C859.33 147.778 887.171 148.486 914.755 148.166C919.122 148.116 923.667 148.098 928.029 148.231C918.193 157.752 907.686 166.603 898.087 175.995C841.415 232.51 785.028 289.308 728.926 346.389C714.423 361.288 700.172 376.431 686.18 391.812C681.158 397.266 672.889 407.113 668.024 411.597C668.293 379.353 667.348 343.931 668.857 312.088C688.157 290.006 709.454 269.96 730.918 250.085C732.442 248.673 733.081 247.786 735.037 246.841C742.307 243.968 818.906 160.548 831.766 148.663Z"/><path d="M650.352 260.305C648.938 290.398 650.364 326.094 650.21 356.576L650.059 453.261C650.051 470.807 649.645 490.458 650.173 507.914C650.215 509.014 650.137 509.214 649.995 510.318C644.551 511.957 590.424 510.813 580.562 510.933C580.318 482.693 581.629 446.946 580.002 419.508L580.207 328.95C589.167 321.827 599.92 309.797 608.364 301.544C620.618 289.567 632.871 277.461 645.012 265.369L650.352 260.305Z"/><path fill="#1A6BFF" d="M651.163 147.485C650.703 177.907 652.218 213.561 650.755 243.075C637.59 255.086 624.385 266.801 611.027 278.587C598.733 289.432 586.947 301.852 575.051 313.271C548.907 311.52 512.081 312.592 485.465 312.716L576.627 221.921C595.161 203.152 613.844 184.531 632.675 166.061C638.68 160.132 645.195 153.172 651.163 147.485Z"/><path d="M668.301 149.544C674.763 149.25 683.371 149.647 690.062 149.652L734.579 149.465C735.288 175.352 733.952 201.799 734.568 227.736C734.722 234.179 734.551 240.378 735.037 246.841C733.081 247.786 732.442 248.673 730.918 250.085C709.454 269.96 688.157 290.006 668.857 312.088C669.58 295.03 668.864 274.308 668.732 256.864C668.295 221.093 668.151 185.318 668.301 149.544Z"/><path d="M706.533 562.06C710.584 561.933 714.576 562.083 718.624 562.196C719.518 578.558 717.738 596.874 718.885 613.396C719.551 611.904 720.424 610.164 721.357 608.827C727.159 600.685 735.977 595.202 745.845 593.601C757.087 591.92 768.538 594.726 777.729 601.414C796.489 615.274 801.331 644.965 789.377 664.692C788.025 666.923 786.356 669.119 784.783 671.204C770.071 687.258 744.558 690.741 726.911 676.579C723.537 673.871 721.394 670.542 718.962 667.011C718.683 672.452 718.757 678.632 718.711 684.137C714.823 683.912 710.237 684.024 706.291 684.023C705.843 645.594 705.221 600.391 706.533 562.06ZM756.981 674.32C773.057 670.505 781.959 660.855 783.154 644.262C785.094 617.307 770.382 602.756 744.385 604.582C735.758 606.532 728.346 610.048 723.693 617.89C714.306 633.714 715.407 659.752 732.765 669.853C741.082 674.692 747.91 674.801 756.981 674.32Z"/><path d="M668.199 563.48C671.819 563.227 675.942 563.401 679.607 563.467C679.766 568.566 679.783 574.228 679.673 579.34C678.928 613.943 680.909 649.569 679.392 684.076L667.651 684.074C667.578 679.007 667.189 673.829 666.879 668.763C660.955 676.194 652.715 681.428 643.472 683.63C630.805 686.547 619.705 684.7 608.804 677.79C584.196 661.406 584.293 619.589 607.497 602.102C627.408 587.096 651.297 590.629 666.817 610.078C667.462 603.507 667.044 565.566 668.199 563.48ZM642.972 673.632C665.88 667.552 671.927 648.144 666.566 626.135C662.333 608.758 645.92 603.473 629.446 604.615C621.212 606.248 613.867 609.246 609.25 616.811C593.473 642.663 608.113 681.653 642.972 673.632Z"/><path d="M290.437 369.846C294.296 371.831 304.379 385.531 308.74 389.651C320.726 400.972 333.334 411.432 345.394 422.638C349.556 426.504 355.688 431.996 358.984 436.483C358.436 462.126 358.054 484.978 358.824 510.659C336.179 510.958 313.184 510.53 290.389 510.77C291.166 464.159 289.471 416.2 290.437 369.846Z"/><path d="M415.031 593.387C434.194 592.467 442.354 596.173 454.361 610.827C454.521 606.004 454.415 600.783 454.399 595.92C459.729 595.29 462.114 595.27 467.396 595.496C466.668 605.932 466.995 618.402 466.993 628.995L467.043 684.134C463.295 683.951 458.961 684.13 455.167 684.195C455.029 678.333 454.684 672.478 454.133 666.641L451.379 670.82C439.879 687.233 412.26 689.788 397.526 678.528C366.924 655.14 373.975 600.346 415.031 593.387ZM428.271 673.833C452.074 668.235 458.809 651.494 454.23 627.786C450.896 610.526 434.906 603.091 418.272 604.044C396.084 607.08 388.289 627.088 391.516 647.479C394.687 667.518 408.755 675.959 428.271 673.833Z"/><path d="M851.72 594.185C876.803 591.908 898.927 610.532 900.963 635.639C902.999 660.747 884.166 682.693 859.044 684.489C834.261 686.26 812.678 667.733 810.669 642.965C808.66 618.196 826.976 596.432 851.72 594.185ZM862.707 673.787C870.396 671.832 879.435 666.667 882.8 659.406C896.377 630.114 882.967 601.751 849.399 604.549C841.151 606.765 832.433 611.271 828.714 619.264C815.778 647.07 829.421 678.27 862.707 673.787Z"/><path d="M319.788 570.311C339.922 567.583 355.3 576.688 360.653 596.308C356.383 596.764 350.683 596.681 346.29 596.74C338.593 571.483 297.369 576.126 300.269 602.71C302.704 617.587 323.463 621.009 335.886 625.57C358.62 633.918 370.48 649.698 355.04 672.343C348.707 681.631 334.342 684.05 323.32 685.047C301.237 683.281 290.074 675.468 286.026 653.52C290.741 653.134 294.411 653.288 299.119 653.432C301.869 670.726 311.4 674.677 328.153 674.205C340.308 673.863 351.098 663.409 348.995 651.237C345.667 631.976 309.229 632.803 296.716 621.155C291.638 616.429 288.068 612.62 287.39 605.312C285.789 583.479 300.029 572.37 319.788 570.311Z"/><path d="M536.812 593.468C568.963 595.469 571.918 617.079 571.427 644.252C571.19 657.335 571.367 671.03 571.221 684.171L559.905 684.204C559.813 668.884 561.921 631.744 557.114 619.228C554.88 613.41 550.868 608.375 545.025 605.921C536.696 602.423 526.785 604.42 518.72 607.637C503.054 618.902 504.997 634.821 504.977 652.093C504.965 662.696 505.084 673.335 505.006 683.94L493.162 684.231L493.329 595.266C497.422 595.011 500.945 595.265 505.014 595.489C504.937 600.221 505.335 603.588 505.832 608.271C516.391 597.382 521.354 594.765 536.812 593.468Z"/><path d="M910.111 595.004L921.449 595.088C929.44 606.541 938.314 620.47 946.245 631.34C954.497 619.359 962.637 607.302 970.664 595.169C974.714 595.001 979.408 595.181 983.507 595.238C975.115 608.58 961.515 627.437 952.067 640.625C961.615 654.441 974.066 669.79 984.557 682.973C984.641 683.227 984.567 683.817 984.55 684.131C981.906 684.724 976.439 684.217 973.523 684.064C965.408 676.418 954.513 659.533 945.863 650.484C938.491 661.633 930.264 673.029 922.574 684.017L909.655 684C911.282 681.201 913.761 677.906 915.681 675.241C924.067 663.6 932.233 651.54 941.14 640.305C933.115 629.51 926.408 618.057 918.598 607.131C915.717 603.102 912.877 599.115 910.111 595.004Z"/></svg>