<?xml version="1.0" encoding="utf-8" ?><svg xmlns="http://www.w3.org/2000/svg" xmlns:xlink="http://www.w3.org/1999/xlink" width="1280" height="832" viewBox="0 0 1280 832"><path fill="#1D1BA2" d="M896.139 97.1437C900.677 96.6355 909.897 96.9962 914.786 97.0621L947.302 97.4045L1053.87 97.3824C1036.15 112.146 1012.79 129.02 993.957 143.635L868.87 240.655L584.443 462.404C585.111 415.02 584.508 365.744 584.533 318.215L584.547 260.396C584.544 249.432 584.837 236.863 584.197 226.016C571.322 235.034 558.51 244.725 545.973 254.196C529.234 266.842 507.683 277.699 503.078 300.024C499.92 315.339 501.007 332.315 501.047 347.924L501.001 406.467L501.21 542.151L395.52 542.29L395.392 352.192L395.195 291.965C395.175 280.932 394.885 269.725 395.646 258.726C397.984 224.909 432.705 211.925 456.182 193.514L527.695 138.363C542.964 126.515 558.324 114.45 574.045 103.194C583.544 96.3923 604.185 95.33 614.336 101.22C621.065 105.125 628.581 111.225 634.972 115.935L665.939 138.39C690.464 156.257 690.127 167.833 690.053 196.451L689.955 228.702C689.943 233.789 689.761 241.266 690.571 246.063L690.698 246.782C700.064 241.118 725.159 219.77 734.763 212.256L834.329 134.456C842.993 127.662 851.762 120.656 860.293 113.72C872.093 104.126 880.725 98.8591 896.139 97.1437Z"/><path fill="#1D1BA2" d="M301.754 97.7181C324.891 96.2442 333.364 107.694 350.537 120.558C379.556 142.392 408.137 164.803 436.263 187.777C398.278 212.922 377.018 223.736 377.492 274.69C361.849 264.639 346.147 250.256 330.764 239.438C325.512 235.745 320.505 231.338 314.85 228.257C314.122 233.029 314.563 246.812 314.579 252.437L314.579 297.899L314.617 468.508C314.679 474.822 314.623 481.138 314.449 487.45C279.45 506.163 244.304 526.905 209.14 545.04C209.651 535.581 209.322 522.945 209.351 513.265L209.207 445.194L209.179 268.83L209.198 209.745C209.183 191.964 206.674 170.496 217.378 155.637C220.19 151.727 223.439 148.15 227.062 144.976C241.631 132.242 260.4 121.327 275.53 108.994C284.901 101.355 290.139 99.5725 301.754 97.7181Z"/><path fill="#1D1BA2" d="M789.056 323.587C792.564 324.223 827.925 352.682 832.868 356.504C868.782 384.22 904.528 412.151 940.107 440.296L1031.68 511.975C1044.75 522.255 1058.59 532.671 1071.32 543.217L986.971 543.129C967.782 543.223 913.919 545.603 898.678 540.123C894.86 538.75 890.502 535.835 887.235 533.476C873.856 523.814 860.972 512.949 847.946 502.769L773.21 444.308C755.263 430.19 737.445 415.951 719.361 402.006C714.343 398.136 708.844 394.029 704.369 389.603C713.149 381.44 728.234 370.585 737.932 362.935C754.742 349.676 771.92 336.41 789.056 323.587Z"/><path fill="#1D1BA2" d="M928.795 589.732C936.852 589.278 945.861 589.451 953.985 589.48C953.248 636.284 953.684 684.387 953.696 731.285L928.739 731.402C928.769 726.188 928.709 720.973 928.559 715.761C914.897 733.352 895.67 738.331 874.897 729.993C852.947 718.949 848.254 692.085 850.55 669.752C853.34 642.606 871.429 621.932 900.229 625.342C913.967 626.969 920.706 634.846 928.705 645.098C929.207 627.102 928.89 607.834 928.795 589.732ZM908.148 712.806C915.489 710.443 923.771 705.484 926.447 698.077C936.046 671.504 928.621 644.476 897.132 646.514C890.673 647.898 883.614 651.067 880.406 657.11C868.321 679.876 875.655 718.246 908.148 712.806Z"/><path fill="#1D1BA2" d="M395.955 589.764C403.709 589.59 411.466 589.566 419.221 589.694C419.328 608.062 419.289 626.431 419.104 644.798C419.656 643.959 420.248 643.146 420.876 642.362C428.777 632.471 437.441 626.822 450.079 625.259C480.037 621.619 496.942 646.287 497.526 673.63C497.905 691.347 497.04 705.934 485.192 720.333C466.205 740.696 435.341 736.948 419.224 714.713C418.823 719.107 419.064 726.787 419.087 731.437L394.556 731.411L394.364 636.188C394.376 625.65 393.682 600.1 394.619 590.468L395.955 589.764ZM449.166 713.265C456.72 711.856 462.964 709.363 467.169 702.528C479.747 682.081 474.127 643.657 443.909 645.262C441.77 645.562 439.515 645.904 437.438 646.54C409.291 655.161 411.982 709.06 441.924 712.977C444.135 713.266 446.895 713.316 449.166 713.265Z"/><path fill="#1D1BA2" d="M781.813 625.133C811.668 622.874 837.764 645.105 840.283 674.943C842.803 704.782 820.804 731.075 790.993 733.856C760.811 736.671 734.123 714.335 731.572 684.125C729.022 653.915 751.586 627.42 781.813 625.133ZM790.155 713.131C827.222 705.669 821.974 641.707 782.541 645.865C752.447 651.661 748.89 692.274 771.091 709.346C776.069 713.174 783.962 713.566 790.155 713.131Z"/><path fill="#1D1BA2" d="M689.077 401.777C689.16 401.851 689.256 401.912 689.327 401.998C690.61 403.57 689.952 528.476 689.955 542.505C682.045 539.28 674.499 534.635 666.963 530.679C651.311 522.464 636.144 513.796 620.437 505.664C609.217 499.89 593.889 491.511 583.171 485.196C593.975 477.458 605.038 467.853 615.621 459.608C640.128 440.516 664.174 420.303 689.077 401.777Z"/><path fill="#1D1BA2" d="M1016.13 625.376C1041.53 624.961 1062.06 636.469 1068.01 662.723C1069.81 670.67 1069.69 677.542 1069.73 685.642C1044.26 685.465 1017.19 685.212 991.795 685.72C993.378 704.278 1005.07 716.353 1024.7 712.813C1033.61 711.205 1038.19 706.077 1042.93 698.871C1048.45 698.691 1054.58 698.796 1060.16 698.77L1068.35 698.886C1050.95 752.715 967.68 742.109 966.404 683.77C965.686 650.921 982.15 627.019 1016.13 625.376ZM1021.56 669.526C1029.28 669.499 1037.34 669.595 1045.03 669.416C1041.52 654.005 1033.84 644.174 1016.55 645.281C1000.56 647.187 995.583 654.428 991.87 669.459C1001.77 669.599 1011.66 669.622 1021.56 669.526Z"/><path fill="#1D1BA2" d="M550.135 625.891C554.154 625.573 558.185 625.43 562.216 625.462C582.322 625.763 600.472 636.492 607.658 655.651C611.417 665.672 611.348 675.124 611.215 685.585C585.932 686.341 558.648 685.31 532.973 685.727C533.251 687.338 533.564 688.943 533.914 690.54C539.767 717.715 570.768 722.08 584.652 698.964L591.094 698.807L610.17 698.856C604.16 716.284 594.658 726.97 575.71 731.674C521.768 745.065 491.985 692.681 516.266 647.915C523.026 635.451 536.442 628.87 550.135 625.891ZM567.031 669.631L586.18 669.522C584.463 650.587 572.619 643.903 554.723 645.233C541.744 648.656 535.585 656.132 533.997 669.63L567.031 669.631Z"/><path fill="#1D1BA2" d="M210.011 591.594C217.648 591.108 229.408 591.431 237.033 591.63C241.978 602.924 246.865 618.787 251.144 630.73C259.813 654.932 267.747 679.819 276.41 703.977C280.166 695.546 284.462 680.559 287.797 671.384C297.123 645.725 305.787 617.169 316.04 592.006C324.49 591.499 335.725 591.746 344.172 591.93C341.135 599.563 338.189 607.233 335.335 614.936C324.443 645.279 311.689 675.266 300.425 705.488C297.16 714.247 293.663 723.398 289.928 731.947C280.577 731.418 271.02 731.803 261.645 732.026C247.813 693.841 224.38 633.093 209.595 592.861C209.734 592.438 209.872 592.016 210.011 591.594Z"/><path fill="#1D1BA2" d="M668.065 625.356C695.959 622.899 718.18 635.791 723.638 664.205C715.311 664.027 706.983 663.935 698.654 663.929C697.577 658.86 695.107 654.702 691.104 651.358C685.597 646.842 678.505 644.731 671.425 645.5C651.201 647.724 644.451 669.905 647.206 687.322C651.537 714.694 679.105 723.488 696.217 700.227C697.008 698.59 697.173 698.309 698.38 696.952C703.109 694.69 718.136 695.717 723.983 695.813C715.786 725.374 689.57 737.691 660.908 732.4C653.816 731.091 645.548 727.49 640.166 722.616C607.221 692.781 619.008 629.268 668.065 625.356Z"/><path fill="#1D1BA2" d="M352.807 625.887C359.179 625.546 371.258 625.6 377.466 626.078L377.464 731.26C369.522 731.514 360.694 731.42 352.689 731.486C353.324 696.591 352.236 660.956 352.807 625.887Z"/><path fill="#1D1BA2" d="M361.364 585.177C369.395 583.171 377.549 587.988 379.667 595.992C381.785 603.996 377.082 612.217 369.11 614.447C363.853 615.917 358.211 614.443 354.345 610.589C350.479 606.735 348.987 601.097 350.441 595.835C351.894 590.572 356.068 586.5 361.364 585.177Z"/></svg>